<svg width="19" height="19" viewBox="0 0 19 19" fill="none" xmlns="http://www.w3.org/2000/svg">
<path d="M14.25 7.71875H13.0625C13.062 7.24648 12.8742 6.79368 12.5403 6.45974C12.2063 6.12579 11.7535 5.93797 11.2812 5.9375V4.75C12.0683 4.75094 12.8229 5.06402 13.3794 5.62057C13.936 6.17711 14.2491 6.93168 14.25 7.71875Z" fill="black"/>
<path d="M16.6251 7.71875H15.4376C15.4364 6.61683 14.9981 5.5604 14.2189 4.78123C13.4397 4.00205 12.3833 3.56376 11.2814 3.5625V2.375C12.6981 2.37657 14.0564 2.94008 15.0582 3.94188C16.06 4.94369 16.6235 6.30198 16.6251 7.71875ZM15.4376 17.2188H15.3367C3.66949 16.5478 2.01293 6.70344 1.78136 3.69906C1.74517 3.22807 1.89755 2.76199 2.20498 2.40334C2.51241 2.04469 2.94972 1.82284 3.42071 1.78659C3.46781 1.78303 3.51511 1.78125 3.56261 1.78125H6.69168C6.92951 1.78102 7.16193 1.85221 7.35883 1.9856C7.55574 2.11898 7.70805 2.30842 7.79605 2.52938L8.69855 4.75C8.78545 4.96586 8.80701 5.20248 8.76056 5.43049C8.71412 5.6585 8.60171 5.86784 8.4373 6.0325L7.17261 7.30906C7.36936 8.43204 7.90672 9.46734 8.71181 10.2746C9.51691 11.0818 10.5508 11.6219 11.6732 11.8216L12.9617 10.545C13.1288 10.3824 13.3401 10.2726 13.5692 10.2293C13.7984 10.186 14.0352 10.2112 14.2501 10.3016L16.4886 11.1981C16.7062 11.2889 16.8918 11.4424 17.0219 11.6391C17.152 11.8358 17.2205 12.0667 17.2189 12.3025V15.4375C17.2189 15.9099 17.0312 16.363 16.6971 16.697C16.3631 17.0311 15.91 17.2188 15.4376 17.2188ZM3.56261 2.96875C3.48464 2.96852 3.40738 2.98364 3.33526 3.01326C3.26313 3.04289 3.19755 3.08643 3.14225 3.1414C3.08695 3.19637 3.04301 3.26169 3.01296 3.33364C2.9829 3.40558 2.96732 3.48275 2.96708 3.56072C2.96708 3.57734 2.96768 3.59377 2.96886 3.61C3.24199 7.125 4.99355 15.4375 15.402 16.0313C15.5591 16.0407 15.7136 15.9873 15.8314 15.8828C15.9492 15.7784 16.0207 15.6315 16.0302 15.4743L16.0314 15.4375V12.3025L13.7929 11.4059L12.0889 13.0981L11.8039 13.0625C6.63824 12.4153 5.93761 7.24969 5.93761 7.19625L5.90199 6.91125L7.58824 5.20719L6.69761 2.96875H3.56261Z" fill="black"/>
</svg>
