<svg width="29" height="29" viewBox="0 0 29 29" fill="none" xmlns="http://www.w3.org/2000/svg">
<path d="M14.5 0C18.3456 0 22.0338 1.52767 24.753 4.24695C27.4723 6.96623 29 10.6544 29 14.5C29 18.3456 27.4723 22.0338 24.753 24.753C22.0338 27.4723 18.3456 29 14.5 29C10.6544 29 6.96623 27.4723 4.24695 24.753C1.52767 22.0338 0 18.3456 0 14.5C0 10.6544 1.52767 6.96623 4.24695 4.24695C6.96623 1.52767 10.6544 0 14.5 0ZM14.5 1.8125C12.8339 1.8125 11.184 2.14067 9.6447 2.77828C8.10539 3.41589 6.70673 4.35044 5.52858 5.52858C4.35044 6.70673 3.41588 8.10539 2.77828 9.6447C2.14067 11.184 1.8125 12.8339 1.8125 14.5C1.8125 16.1661 2.14067 17.816 2.77828 19.3553C3.41588 20.8946 4.35044 22.2933 5.52858 23.4714C6.70673 24.6496 8.10539 25.5841 9.6447 26.2217C11.184 26.8593 12.8339 27.1875 14.5 27.1875C17.8649 27.1875 21.092 25.8508 23.4714 23.4714C25.8508 21.092 27.1875 17.8649 27.1875 14.5C27.1875 11.1351 25.8508 7.90795 23.4714 5.52858C21.092 3.14921 17.8649 1.8125 14.5 1.8125ZM14.5 20.8438C14.8605 20.8438 15.2063 20.987 15.4612 21.2419C15.7162 21.4968 15.8594 21.8426 15.8594 22.2031C15.8594 22.5637 15.7162 22.9094 15.4612 23.1643C15.2063 23.4193 14.8605 23.5625 14.5 23.5625C14.1395 23.5625 13.7937 23.4193 13.5388 23.1643C13.2838 22.9094 13.1406 22.5637 13.1406 22.2031C13.1406 21.8426 13.2838 21.4968 13.5388 21.2419C13.7937 20.987 14.1395 20.8438 14.5 20.8438ZM14.5 6.34375C15.4208 6.34387 16.3197 6.62452 17.077 7.14833C17.8344 7.67214 18.4141 8.41424 18.7391 9.2758C19.0641 10.1374 19.1188 11.0775 18.8961 11.971C18.6734 12.8644 18.1838 13.6688 17.4924 14.2771L17.2133 14.5036L16.8164 14.7991L16.6587 14.9296C16.5596 15.0143 16.4652 15.1045 16.3759 15.1996C15.7615 15.8521 15.4062 16.7511 15.4062 18.125C15.4062 18.3654 15.3108 18.5959 15.1408 18.7658C14.9709 18.9358 14.7404 19.0312 14.5 19.0312C14.2596 19.0312 14.0291 18.9358 13.8592 18.7658C13.6892 18.5959 13.5938 18.3654 13.5938 18.125C13.5938 16.2908 14.1248 14.9495 15.0528 13.9599C15.2525 13.7484 15.4682 13.5526 15.6981 13.3744L16.1458 13.0391L16.3596 12.8579C16.6885 12.5495 16.9355 12.1642 17.0785 11.7367C17.2214 11.3091 17.2558 10.8527 17.1785 10.4086C17.1012 9.96443 16.9147 9.54647 16.6358 9.19232C16.3568 8.83817 15.9942 8.55894 15.5805 8.37978C15.1668 8.20061 14.7151 8.12713 14.2659 8.16594C13.8168 8.20476 13.3843 8.35465 13.0075 8.60213C12.6307 8.84961 12.3213 9.18691 12.1073 9.58367C11.8932 9.98042 11.7812 10.4242 11.7812 10.875C11.7815 11.1154 11.6862 11.346 11.5165 11.5161C11.3467 11.6862 11.1163 11.7819 10.8759 11.7822C10.6356 11.7824 10.405 11.6871 10.2348 11.5174C10.0647 11.3476 9.96899 11.1172 9.96875 10.8768C9.96851 10.2816 10.0855 9.69219 10.3132 9.14222C10.5408 8.59226 10.8745 8.09252 11.2953 7.67156C11.7161 7.25061 12.2157 6.91667 12.7655 6.68884C13.3154 6.46101 13.9048 6.34375 14.5 6.34375Z" fill="#79B285"/>
</svg>
