<svg width="29" height="29" viewBox="0 0 29 29" fill="none" xmlns="http://www.w3.org/2000/svg">
<path d="M14.5002 23.0097C15.1659 23.0097 15.7055 22.4701 15.7055 21.8044C15.7055 21.1388 15.1659 20.5991 14.5002 20.5991C13.8346 20.5991 13.2949 21.1388 13.2949 21.8044C13.2949 22.4701 13.8346 23.0097 14.5002 23.0097Z" fill="black"/>
<path d="M14.5 18.6779C14.2596 18.6779 14.0291 18.5824 13.8592 18.4124C13.6892 18.2425 13.5938 18.012 13.5938 17.7716V6.89661C13.5938 6.65625 13.6892 6.42575 13.8592 6.25579C14.0291 6.08584 14.2596 5.99036 14.5 5.99036C14.7404 5.99036 14.9709 6.08584 15.1408 6.25579C15.3108 6.42575 15.4062 6.65625 15.4062 6.89661V17.7716C15.4062 18.012 15.3108 18.2425 15.1408 18.4124C14.9709 18.5824 14.7404 18.6779 14.5 18.6779Z" fill="black"/>
<path d="M14.5 29C11.6322 29 8.82875 28.1496 6.44424 26.5563C4.05972 24.963 2.20122 22.6984 1.10375 20.0489C0.00628257 17.3994 -0.280866 14.4839 0.27862 11.6712C0.838105 8.85847 2.2191 6.27482 4.24696 4.24696C6.27482 2.2191 8.85847 0.838105 11.6712 0.27862C14.4839 -0.280866 17.3994 0.00628257 20.0489 1.10375C22.6984 2.20122 24.963 4.05972 26.5563 6.44424C28.1496 8.82875 29 11.6322 29 14.5C29 18.3456 27.4723 22.0338 24.753 24.753C22.0338 27.4723 18.3456 29 14.5 29ZM14.5 1.81251C11.9907 1.81251 9.53765 2.55661 7.45121 3.95073C5.36476 5.34485 3.73857 7.32637 2.77828 9.64471C1.818 11.963 1.56674 14.5141 2.05629 16.9752C2.54584 19.4363 3.75421 21.697 5.52859 23.4714C7.30297 25.2458 9.56366 26.4542 12.0248 26.9437C14.4859 27.4333 17.037 27.182 19.3553 26.2217C21.6736 25.2614 23.6552 23.6352 25.0493 21.5488C26.4434 19.4624 27.1875 17.0094 27.1875 14.5C27.1875 11.1351 25.8508 7.90795 23.4714 5.52859C21.0921 3.14922 17.8649 1.81251 14.5 1.81251Z" fill="black"/>
</svg>
