<svg width="42" height="42" viewBox="0 0 42 42" fill="none" xmlns="http://www.w3.org/2000/svg">
<path d="M35.052 11.8412L26.2254 3.01055C25.9793 2.76445 25.643 2.625 25.2943 2.625H7.875C7.14902 2.625 6.5625 3.21152 6.5625 3.9375V38.0625C6.5625 38.7885 7.14902 39.375 7.875 39.375H34.125C34.851 39.375 35.4375 38.7885 35.4375 38.0625V12.7682C35.4375 12.4195 35.298 12.0873 35.052 11.8412ZM16.4062 16.4883C17.3127 16.4883 18.0469 17.2225 18.0469 18.1289C18.0469 19.0354 17.3127 19.7695 16.4062 19.7695C15.4998 19.7695 14.7656 19.0354 14.7656 18.1289C14.7656 17.2225 15.4998 16.4883 16.4062 16.4883ZM28.5469 28.5469H13.4531C13.1783 28.5469 13.0266 28.2311 13.1947 28.0178L17.2881 22.8006C17.3188 22.7614 17.358 22.7297 17.4028 22.7078C17.4475 22.686 17.4967 22.6747 17.5465 22.6747C17.5963 22.6747 17.6454 22.686 17.6902 22.7078C17.735 22.7297 17.7742 22.7614 17.8049 22.8006L19.4906 24.9498L22.6816 20.8811C22.7123 20.8418 22.7516 20.8101 22.7963 20.7883C22.8411 20.7665 22.8902 20.7552 22.94 20.7552C22.9898 20.7552 23.039 20.7665 23.0838 20.7883C23.1285 20.8101 23.1677 20.8418 23.1984 20.8811L28.7971 28.0178C28.9734 28.2311 28.8176 28.5469 28.5469 28.5469V28.5469ZM24.6914 13.3711V5.65195L32.4105 13.3711H24.6914Z" fill="#79B285"/>
</svg>
