<svg width="105" height="105" viewBox="0 0 105 105" fill="none" xmlns="http://www.w3.org/2000/svg">
<g filter="url(#filter0_f_1_26)">
<circle cx="52.5" cy="52.5" r="32.5" fill="#79B285"/>
</g>
<circle cx="52.5" cy="52.5" r="32.5" fill="#79B285"/>
<path d="M52.7867 65.6888C50.4058 65.6888 48.3196 64.958 46.528 63.4964C44.7364 62.0113 43.7935 60.1372 43.6992 57.8742H49.2153C49.4039 58.6286 49.8282 59.2415 50.4883 59.7129C51.1484 60.1844 51.9145 60.4201 52.7867 60.4201C53.8946 60.4201 54.7551 60.1019 55.368 59.4654C55.9809 58.8289 56.2873 57.9921 56.2873 56.9548C56.2873 55.9648 55.9573 55.1397 55.2973 54.4796C54.6372 53.8196 53.8121 53.4896 52.8221 53.4896C51.9027 53.4896 51.1248 53.7371 50.4883 54.2321C49.8518 54.7036 49.3921 55.3283 49.1093 56.1062L44.4771 54.6564L47.3766 40.1942H59.7173V45.3568H51.4784L50.6297 49.3524C51.4548 48.9045 52.5274 48.6806 53.8475 48.6806C56.2048 48.6806 58.0907 49.4821 59.5051 51.0851C60.9195 52.6881 61.6267 54.7743 61.6267 57.3438C61.6267 59.9369 60.8252 61.976 59.2222 63.4611C57.6428 64.9462 55.4976 65.6888 52.7867 65.6888Z" fill="white"/>
<defs>
<filter id="filter0_f_1_26" x="0" y="0" width="105" height="105" filterUnits="userSpaceOnUse" color-interpolation-filters="sRGB">
<feFlood flood-opacity="0" result="BackgroundImageFix"/>
<feBlend mode="normal" in="SourceGraphic" in2="BackgroundImageFix" result="shape"/>
<feGaussianBlur stdDeviation="10" result="effect1_foregroundBlur_1_26"/>
</filter>
</defs>
</svg>
