<svg width="105" height="105" viewBox="0 0 105 105" fill="none" xmlns="http://www.w3.org/2000/svg">
<g filter="url(#filter0_f_1_28)">
<circle cx="52.5" cy="52.5" r="32.5" fill="#79B285"/>
</g>
<circle cx="52.5" cy="52.5" r="32.5" fill="#79B285"/>
<path d="M52.6442 65.689C50.1219 65.689 47.9413 64.9346 46.1026 63.4259C44.2639 61.8937 43.2974 59.7603 43.2031 57.0258H48.5071C48.6249 58.1573 49.0493 59.0059 49.78 59.5717C50.5108 60.1375 51.4655 60.4203 52.6442 60.4203C53.6814 60.4203 54.5065 60.1728 55.1194 59.6778C55.7559 59.1592 56.0859 58.4873 56.1095 57.6623C56.1331 56.7665 55.803 56.0357 55.1194 55.4699C54.4358 54.9042 53.5282 54.6213 52.3967 54.6213H50.2044V50.3427H52.1138C54.259 50.3427 55.3551 49.4352 55.4023 47.62C55.4259 46.8657 55.1665 46.2528 54.6244 45.7813C54.0822 45.2863 53.3868 45.0387 52.5381 45.0387C51.5009 45.0387 50.6523 45.3452 49.9922 45.9581C49.3321 46.571 49.0139 47.3136 49.0375 48.1858H43.6981C43.6981 45.6399 44.5821 43.6008 46.3501 42.0685C48.1417 40.5362 50.2044 39.7701 52.5381 39.7701C55.1076 39.7701 57.1231 40.4891 58.5847 41.9271C60.0462 43.3415 60.777 45.0859 60.777 47.1603C60.777 48.2919 60.5177 49.3409 59.9991 50.3074C59.504 51.2503 58.8911 52.0047 58.1604 52.5704C59.1033 53.0419 59.893 53.7491 60.5295 54.692C61.166 55.635 61.4842 56.7783 61.4842 58.1219C61.4842 60.3378 60.6591 62.153 59.009 63.5674C57.3824 64.9818 55.2608 65.689 52.6442 65.689Z" fill="white"/>
<defs>
<filter id="filter0_f_1_28" x="0" y="0" width="105" height="105" filterUnits="userSpaceOnUse" color-interpolation-filters="sRGB">
<feFlood flood-opacity="0" result="BackgroundImageFix"/>
<feBlend mode="normal" in="SourceGraphic" in2="BackgroundImageFix" result="shape"/>
<feGaussianBlur stdDeviation="10" result="effect1_foregroundBlur_1_28"/>
</filter>
</defs>
</svg>
