<svg width="105" height="105" viewBox="0 0 105 105" fill="none" xmlns="http://www.w3.org/2000/svg">
<g filter="url(#filter0_f_1_29)">
<circle cx="52.5" cy="52.5" r="32.5" fill="#79B285"/>
</g>
<circle cx="52.5" cy="52.5" r="32.5" fill="#79B285"/>
<path d="M61.3266 60.0312V65.2998H44.0002V63.4964C44.0002 62.8128 44.0709 62.1528 44.2123 61.5163C44.3538 60.8562 44.5188 60.2905 44.7074 59.819C44.8959 59.324 45.1906 58.8171 45.5914 58.2985C45.9921 57.7799 46.3339 57.3556 46.6168 57.0256C46.8997 56.6955 47.324 56.3066 47.8898 55.8587C48.4555 55.3872 48.8916 55.0454 49.1981 54.8332C49.5045 54.5975 49.9878 54.2557 50.6478 53.8078C51.3079 53.3363 51.7676 53.0063 52.0269 52.8177C54.5492 51.0262 55.8104 49.4232 55.8104 48.0088C55.8104 47.1366 55.5511 46.4294 55.0325 45.8872C54.5374 45.3214 53.8067 45.0385 52.8402 45.0385C51.8265 45.0385 51.0014 45.345 50.365 45.9579C49.752 46.5708 49.4456 47.3134 49.4456 48.1856H44.1062C44.1062 45.7339 44.9431 43.7184 46.6168 42.139C48.3141 40.5596 50.4475 39.7699 53.017 39.7699C55.28 39.7699 57.2012 40.4653 58.7806 41.8561C60.36 43.2234 61.1498 45.1446 61.1498 47.6198C61.1498 49.0578 60.9022 50.3425 60.4072 51.474C59.9122 52.6056 59.3346 53.5131 58.6746 54.1968C58.0145 54.8804 57.1187 55.6465 55.9872 56.4952C55.94 56.5187 55.4686 56.8252 54.5728 57.4145C53.7006 57.9803 53.0287 58.4635 52.5573 58.8643C52.0858 59.265 51.744 59.654 51.5318 60.0312H61.3266Z" fill="white"/>
<defs>
<filter id="filter0_f_1_29" x="0" y="0" width="105" height="105" filterUnits="userSpaceOnUse" color-interpolation-filters="sRGB">
<feFlood flood-opacity="0" result="BackgroundImageFix"/>
<feBlend mode="normal" in="SourceGraphic" in2="BackgroundImageFix" result="shape"/>
<feGaussianBlur stdDeviation="10" result="effect1_foregroundBlur_1_29"/>
</filter>
</defs>
</svg>
